# xmcd CD database file
#
# Track frame offsets:
#	150
#	37499
#	60436
#	82083
#	118781
#	153146
#	185462
#	215834
#	237950
#	275941
#
# Disc length: 4086 seconds
#
# Revision: 3
# Processed by: cddbd v1.5.1PL2 Copyright (c) Steve Scherf et al.
# Submitted via: CDex 1.51
#
DISCID=980ff40a
DTITLE=尾崎豊 - 真空の中でも嵐は起こる
DYEAR=2006
DGENRE=JRock
TTITLE0=狂想曲
TTITLE1=四月の雨
TTITLE2=耳鳴り
TTITLE3=ギザギザのツメ
TTITLE4=発火点
TTITLE5=本能わずかな純情
TTITLE6=リンダ
TTITLE7=冬の動物園
TTITLE8=幸福の意味
TTITLE9=瞬き
EXTD=YEAR: 2006
EXTT0=
EXTT1=
EXTT2=
EXTT3=
EXTT4=
EXTT5=
EXTT6=
EXTT7=
EXTT8=
EXTT9=
PLAYORDER=
